<svg width="181" height="149" viewBox="0 0 181 149" fill="none" xmlns="http://www.w3.org/2000/svg">
<path d="M155.441 7.21872L180.344 137.832L0.0819082 148.976C10.1526 26.614 104.219 12.0185 155.441 7.21872Z" fill="#7BC0AE"/>
<path d="M155.094 3.28378L99.8097 0.0297384C96.0895 -0.189237 92.8888 2.68282 92.6311 6.47133L84.6919 123.193C84.4302 127.04 87.2998 130.366 91.0775 130.593L147.534 133.988C151.285 134.213 154.504 131.298 154.726 127.476L161.492 10.6131C161.714 6.78768 158.848 3.50475 155.094 3.28378Z" fill="white"/>
<path fill-rule="evenodd" clip-rule="evenodd" d="M94.1871 7.16074C94.3932 4.04741 97.0295 1.69434 100.075 1.90502L154.476 5.6677C157.522 5.87838 159.824 8.57302 159.618 11.6864L151.993 126.857C151.786 129.971 149.15 132.324 146.104 132.113L91.7041 128.35C88.6582 128.14 86.356 125.445 86.5621 122.332L89.4215 79.1426L90.4726 79.2153L87.6132 122.404C87.4464 124.924 89.3098 127.106 91.7753 127.276L146.175 131.039C148.641 131.209 150.775 129.305 150.942 126.785L158.567 11.6137C158.733 9.09365 156.87 6.91253 154.404 6.742L100.004 2.97932C97.5389 2.80879 95.405 4.71343 95.2381 7.23344L93.3319 36.0262L92.2809 35.9535L94.1871 7.16074Z" fill="#003A9B"/>
<path fill-rule="evenodd" clip-rule="evenodd" d="M147.336 61.3463L102.487 58.3618L102.559 57.2922L147.407 60.2767L147.336 61.3463Z" fill="#003A9B"/>
<path fill-rule="evenodd" clip-rule="evenodd" d="M111.163 76.7207L111.234 75.6511L140.793 77.6182L140.722 78.6877L111.163 76.7207Z" fill="#003A9B"/>
<path fill-rule="evenodd" clip-rule="evenodd" d="M112.541 52.1124L112.612 51.0428L142.171 53.0099L142.1 54.0794L112.541 52.1124Z" fill="#003A9B"/>
<path fill-rule="evenodd" clip-rule="evenodd" d="M106.513 64.5568L106.584 63.4872L137.502 65.5447L137.431 66.6143L106.513 64.5568Z" fill="#003A9B"/>
<path fill-rule="evenodd" clip-rule="evenodd" d="M132.175 84.0463L100.917 81.9662L100.988 80.8966L132.246 82.9767L132.175 84.0463Z" fill="#003A9B"/>
<path fill-rule="evenodd" clip-rule="evenodd" d="M112.575 70.8874L112.646 69.8179L145.263 71.9884L145.192 73.058L112.575 70.8874Z" fill="#003A9B"/>
<path fill-rule="evenodd" clip-rule="evenodd" d="M146.57 48.4496L109.912 46.022L109.983 44.9525L146.641 47.38L146.57 48.4496Z" fill="#003A9B"/>
<path fill-rule="evenodd" clip-rule="evenodd" d="M110.038 88.5003L110.109 87.4307L138.649 89.3299L138.577 90.3995L110.038 88.5003Z" fill="#003A9B"/>
<path d="M134.031 114.4C134.068 113.802 134.549 113.35 135.106 113.39L145.57 114.137C146.127 114.177 146.548 114.694 146.511 115.291L145.878 125.492C145.841 126.09 145.36 126.542 144.803 126.502L134.339 125.755C133.783 125.715 133.361 125.198 133.398 124.601L134.031 114.4Z" fill="#003A9B"/>
<path fill-rule="evenodd" clip-rule="evenodd" d="M115.596 15.3619C115.554 14.6286 116.207 14.0257 116.992 14.0749L136.83 15.32C137.675 15.373 138.256 16.1362 138.032 16.8992C137.864 17.4745 137.284 17.8585 136.647 17.8167L116.812 16.516C116.153 16.4728 115.632 15.978 115.596 15.3619ZM116.922 15.0517C116.765 15.0418 116.634 15.1623 116.643 15.3088C116.65 15.4319 116.754 15.5308 116.886 15.5395L136.72 16.8402C136.859 16.8493 136.985 16.7657 137.022 16.6405C137.07 16.4744 136.944 16.3083 136.76 16.2967L116.922 15.0517Z" fill="#003A9B"/>
<path d="M87.785 47.8018L94.0449 52.6987C89.7361 56.9023 80.9682 65.4759 80.3666 66.1414C79.6146 66.9733 69.5947 66.2359 68.7716 66.3021C68.113 66.355 81.1728 53.9906 87.785 47.8018Z" fill="white"/>
<path d="M101.524 22.7716L101.523 22.7728L98.1783 30.9563L90.3505 34.8774C88.7897 35.6592 88.8631 37.9253 90.4763 38.6003L98.5488 41.9778L102.433 49.8849C103.209 51.4659 105.476 51.3858 106.143 49.759L109.489 41.6047L117.339 37.6824L117.34 37.6819C118.901 36.9001 118.827 34.6341 117.214 33.9591L117.213 33.9587L109.119 30.5821L105.235 22.6469L105.234 22.6457C104.457 21.0647 102.191 21.1448 101.524 22.7716ZM67.678 27.2459C67.0004 25.8663 65.0218 25.9366 64.4396 27.3556L61.9658 33.3851L56.1783 36.2842C54.8169 36.9662 54.8806 38.9416 56.2881 39.5305L62.2559 42.0274L65.1275 47.8736C65.8052 49.2532 67.7838 49.1829 68.366 47.7639L70.8397 41.7344L76.6273 38.8353C77.9886 38.1533 77.925 36.1779 76.5175 35.589L70.5496 33.0921L67.678 27.2459ZM100.699 84.4103L101.597 83.9694L100.699 84.4103C101.377 85.7899 103.355 85.7196 103.938 84.3006L106.411 78.2711L112.199 75.372C113.56 74.69 113.497 72.7146 112.089 72.1257L106.121 69.6288L103.25 63.7826C102.572 62.403 100.593 62.4733 100.011 63.8923L97.5375 69.9218L91.7499 72.8209C90.3886 73.5029 90.4522 75.4783 91.8597 76.0672L97.8276 78.5641L100.699 84.4103ZM58.3996 92.9104C58.8721 93.3563 59.4556 93.6587 60.0535 93.7477C60.6478 93.8363 61.3585 93.7176 61.8676 93.1674L97.3977 54.7728C98.0534 54.0642 98.5176 53.2351 98.7045 52.4296C98.884 51.656 98.8433 50.679 98.1299 50.0058L90.6671 42.963C89.9496 42.2859 88.9712 42.3103 88.2124 42.5456C87.4244 42.7899 86.6348 43.3157 85.9793 44.024L50.4492 82.4186C49.9424 82.9663 49.8756 83.6821 50.0014 84.2664C50.1285 84.8565 50.464 85.4215 50.9367 85.8676L58.3996 92.9104ZM80.9597 62.0378L79.9267 61.063L89.0294 51.2264L90.0624 52.2013L80.9597 62.0378Z" fill="white" stroke="white" stroke-width="2"/>
<path d="M102.648 23.0788C102.257 22.2839 101.123 22.3227 100.786 23.1425L97.3486 31.5599L89.3001 35.5946C88.5135 35.9889 88.5519 37.1358 89.3631 37.4754L97.6632 40.9508L101.656 49.0848C102.046 49.8798 103.18 49.8409 103.517 49.0211L106.955 40.6329L115.026 36.5974C115.813 36.2031 115.774 35.0562 114.963 34.7166L106.641 31.242L102.648 23.0788Z" fill="#E0A961"/>
<path d="M65.6204 27.6177C65.3278 27.0215 64.4767 27.0506 64.2246 27.6655L61.6455 33.9566L55.6091 36.9827C55.0191 37.2784 55.048 38.1386 55.6564 38.3933L61.8814 40.9998L64.8757 47.1003C65.1683 47.6965 66.0194 47.6674 66.2715 47.0526L68.8506 40.7614L74.887 37.7353C75.477 37.4396 75.4482 36.5795 74.8398 36.3247L68.6147 33.7182L65.6204 27.6177Z" fill="#E0A961"/>
<path d="M99.2953 63.715C99.5473 63.1002 100.398 63.071 100.691 63.6673L103.685 69.7678L109.91 72.3743C110.519 72.629 110.548 73.4891 109.958 73.7849L103.921 76.8109L101.342 83.1021C101.09 83.717 100.239 83.7461 99.9463 83.1499L96.9521 77.0494L90.727 74.4428C90.1186 74.1881 90.0898 73.328 90.6797 73.0322L96.7161 70.0062L99.2953 63.715Z" fill="#E0A961"/>
<path fill-rule="evenodd" clip-rule="evenodd" d="M60.0531 91.5551C59.6154 92.0285 58.7116 91.8937 58.0343 91.2541L50.6765 84.3052C49.9993 83.6655 49.8051 82.7633 50.2428 82.2899L85.2725 44.4072C86.3744 43.2156 87.8167 42.7681 88.4939 43.4078L95.8517 50.3567C96.5289 50.9963 96.1847 52.4808 95.0828 53.6725L60.0531 91.5551ZM77.1947 60.5958L87.5086 49.442L89.9612 51.7583L79.6473 62.9121L77.1947 60.5958Z" fill="#E0A961"/>
</svg>
