<svg width="511" height="400" viewBox="0 0 511 400" xmlns="http://www.w3.org/2000/svg"><title>cityscape</title><g fill-rule="nonzero" fill="none"><path fill="#FFF" d="M0 0h510.986v400H0V0"/><path fill="#099AB9" opacity=".2" d="M0 154.23h510.986v1.973H0z"/><path fill="#099AB9" opacity=".3" d="M0 161.299h510.986v2.967H0z"/><path fill="#099AB9" opacity=".5" d="M0 179.993h510.986v4.954H0z"/><path fill="#099AB9" opacity=".6" d="M0 191.562h510.986v5.933H0z"/><path fill="#099AB9" opacity=".7" d="M0 205.018h241.575v6.927H0z"/><path fill="#099AB9" opacity=".8" d="M0 220.348h510.986v7.92H0z"/><path fill="#099AB9" opacity=".9" d="M0 236.885h510.986v8.417H0z"/><path fill="#099AB9" d="M0 254.486h510.986v9.894H0zM0 274.329h153.598v10.887H0zM0 319.227h510.986v12.874H0z"/><g><path fill="#FFF" d="M426.277 115.322h-5.123V174l35.368-.07-17.69-66.273h-9.712z"/><path fill="#FFF" d="M451.385 115.237l-2.829-7.58h-9.725l17.691 65.649v-58.07z"/><g opacity=".4" fill="#099AB9"><path d="M423.265 173.306h-2.11v-58.962h5.15l2.674-7.55h19.802l2.675 7.55h5.15v54.882h-2.11v-52.757h-4.532l-2.66-7.55H430.47l-2.674 7.55h-4.532z"/><path d="M425.545 119.246h7.53v2.083h-7.53zM435.284 119.246h7.53v2.083h-7.53zM435.284 114.203h7.53v2.083h-7.53zM444.869 119.246h7.53v2.083h-7.53zM425.545 124.148h7.53v2.083h-7.53zM425.545 130.834h2.125v2.139h-2.125zM430.485 130.834h2.125v2.139h-2.125zM435.439 130.834h2.125v2.139h-2.125zM440.379 130.834h2.125v2.139h-2.125zM445.319 130.834h2.125v2.139h-2.125zM450.273 130.834h2.125v2.139h-2.125zM425.545 135.75h2.125v2.139h-2.125zM430.485 135.75h2.125v2.139h-2.125zM435.439 135.75h2.125v2.139h-2.125zM440.379 135.75h2.125v2.139h-2.125zM445.319 135.75h2.125v2.139h-2.125zM450.273 135.75h2.125v2.139h-2.125zM425.545 140.666h2.125v2.139h-2.125zM430.485 140.666h2.125v2.139h-2.125zM435.439 140.666h2.125v2.139h-2.125zM440.379 140.666h2.125v2.139h-2.125zM445.319 140.666h2.125v2.139h-2.125zM450.273 140.666h2.125v2.139h-2.125zM425.545 145.596h2.125v2.139h-2.125zM430.485 145.596h2.125v2.139h-2.125zM435.439 145.596h2.125v2.139h-2.125zM440.379 145.596h2.125v2.139h-2.125zM445.319 145.596h2.125v2.139h-2.125zM450.273 145.596h2.125v2.139h-2.125zM425.545 150.512h2.125v2.139h-2.125zM430.485 150.512h2.125v2.139h-2.125zM435.439 150.512h2.125v2.139h-2.125zM440.379 150.512h2.125v2.139h-2.125zM445.319 150.512h2.125v2.139h-2.125zM450.273 150.512h2.125v2.139h-2.125zM425.545 155.428h2.125v2.139h-2.125zM430.485 155.428h2.125v2.139h-2.125zM435.439 155.428h2.125v2.139h-2.125zM440.379 155.428h2.125v2.139h-2.125zM445.319 155.428h2.125v2.139h-2.125zM450.273 155.428h2.125v2.139h-2.125zM425.545 160.343h2.125v2.139h-2.125zM430.485 160.343h2.125v2.139h-2.125zM435.439 160.343h2.125v2.139h-2.125zM440.379 160.343h2.125v2.139h-2.125zM445.319 160.343h2.125v2.139h-2.125zM450.273 160.343h2.125v2.139h-2.125zM425.545 165.273h2.125v2.139h-2.125zM430.485 165.273h2.125v2.139h-2.125zM435.439 165.273h2.125v2.139h-2.125zM440.379 165.273h2.125v2.139h-2.125zM445.319 165.273h2.125v2.139h-2.125zM450.273 165.273h2.125v2.139h-2.125zM430.485 170.189h2.125v2.139h-2.125zM435.439 170.189h2.125v2.139h-2.125zM440.379 170.189h2.125v2.139h-2.125zM445.319 170.189h2.125v2.139h-2.125zM435.284 124.148h7.53v2.083h-7.53zM444.869 124.148h7.53v2.083h-7.53z"/></g></g><g><path d="M480.17 173.531a103.812 103.812 0 0 1-16.111-1.705 53.673 53.673 0 0 0-6.16-.797 14.035 14.035 0 0 0-7.396 2.571 20.368 20.368 0 0 1-8.516 3.217 7.18 7.18 0 0 1-.795 0c-1.7-.08-3.371-.448-4.94-1.086a15.665 15.665 0 0 1-2.228-1.072l-.966-.509c-2.115-1.045-5.521-.811-7.097-.701h-13.144v-3.699h12.874c1.988-.138 6.132-.413 9.227 1.1.383.193.766.399 1.135.605.532.31 1.087.581 1.661.811 1.23.515 2.55.795 3.89.825a16.53 16.53 0 0 0 6.912-2.75 18.003 18.003 0 0 1 9.354-3.121c2.32.11 4.626.394 6.899.852a99.083 99.083 0 0 0 15.457 1.65" fill="#FFF"/><path d="M441.206 176.859c-1.7-.081-3.371-.449-4.94-1.087a15.521 15.521 0 0 1-2.228-1.072l-.966-.509c-2.114-1.045-5.521-.811-7.097-.701H0v-3.74H425.635c1.987-.138 6.132-.413 9.226 1.1.383.193.767.399 1.136.605.531.31 1.087.581 1.66.811 1.23.515 2.55.795 3.89.825a16.53 16.53 0 0 0 6.912-2.75 18.003 18.003 0 0 1 9.354-3.121c2.32.11 4.626.394 6.899.852a99.083 99.083 0 0 0 15.458 1.65H511v3.837h-30.83a103.812 103.812 0 0 1-16.111-1.705 53.673 53.673 0 0 0-6.16-.798 14.035 14.035 0 0 0-7.396 2.571 20.368 20.368 0 0 1-8.516 3.218 7.18 7.18 0 0 1-.781.014z" fill="#099AB9" opacity=".4"/></g><g><path fill="#FFF" d="M363.922 213.009h-4.25V189.67h49.895v22.94h-4.25z"/><path fill="#FFF" d="M366.387 191.886v-64.843h36.465v63.636z"/><g opacity=".7" fill="#099AB9"><path d="M363.922 210.14h-4.25V186.8h49.895v22.926h-4.25v-18.664h-41.395z"/><path d="M370.637 189.017h-4.25V125.92h36.465v61.918h-4.25v-57.77h-27.965z"/><path d="M377.366 127.767h-4.25v-7.5h23.007v7.4h-4.25v-3.139h-14.507zM368.852 132.27h31.705v1.42h-31.705zM368.852 136.162h31.705v1.42h-31.705zM368.852 140.04h31.705v1.42h-31.705zM368.852 143.932h31.705v1.42h-31.705zM368.852 147.81h31.705v1.42h-31.705zM368.852 151.702h31.705v1.42h-31.705zM368.852 155.58h31.705V157h-31.705zM368.852 159.472h31.705v1.42h-31.705zM368.852 163.349h31.705v1.42h-31.705zM368.852 167.241h31.705v1.42h-31.705zM368.852 171.119h31.705v1.42h-31.705zM368.342 175.011h31.705v1.42h-31.705zM368.342 178.889h31.705v1.42h-31.705zM368.342 182.767h31.705v1.42h-31.705zM362.959 193.946h43.676v1.42h-43.676zM362.959 197.994h43.676v1.42h-43.676zM362.959 202.043h43.676v1.42h-43.676zM362.959 206.091h43.676v1.42h-43.676z"/><path d="M376.899 92.54h2.833v30.44h-2.833zM382.806 106.616h2.833v16.349h-2.833z"/></g><path d="M412.924 215.722a28.273 28.273 0 0 1-13.047-3.253c-2.834-1.42-3.995-1.79-5.752-1.051-.798.37-1.574.788-2.323 1.25a22.924 22.924 0 0 1-4.25 2.06 21.766 21.766 0 0 1-17.539-2.131 27.204 27.204 0 0 1-1.034-.739 8.172 8.172 0 0 0-1.416-.938 11.135 11.135 0 0 0-4.42-.525 43.91 43.91 0 0 0-9.846 1.832 65.33 65.33 0 0 1-6.786 1.549c-2.83.4-5.713.122-8.415-.81a19.686 19.686 0 0 0-5.964-.994h-23.829v-6.904h23.843c2.664.019 5.31.44 7.848 1.25 1.744.656 3.622.87 5.468.625a59.48 59.48 0 0 0 6.064-1.42 49.168 49.168 0 0 1 11.404-2.074 17.453 17.453 0 0 1 7.423 1.108 14.16 14.16 0 0 1 2.763 1.69l.765.54a14.981 14.981 0 0 0 11.531 1.335 17.391 17.391 0 0 0 2.905-1.42 27.712 27.712 0 0 1 3.102-1.634c4.69-1.988 8.231-.327 11.333 1.15a21.203 21.203 0 0 0 11.66 2.543 34.189 34.189 0 0 0 8.755-1.704 34.964 34.964 0 0 1 11.333-1.918h67.887v6.932H434.5c-3.17.016-6.317.564-9.308 1.62a41.058 41.058 0 0 1-10.256 2.03c-.718.01-1.389.01-2.012 0z" fill="#FFF"/><path d="M412.924 215.722a28.273 28.273 0 0 1-13.047-3.253c-2.834-1.42-3.995-1.79-5.752-1.051a22.42 22.42 0 0 0-2.323 1.25 22.853 22.853 0 0 1-4.25 2.06 21.766 21.766 0 0 1-17.539-2.131c-.354-.242-.694-.483-1.034-.725a8.101 8.101 0 0 0-1.416-.937 11.121 11.121 0 0 0-4.42-.526c-3.341.233-6.645.848-9.846 1.832a65.4 65.4 0 0 1-6.786 1.549c-2.83.4-5.713.122-8.415-.81a19.686 19.686 0 0 0-5.964-.994h-23.829v-6.918h23.843c2.664.019 5.31.44 7.848 1.25 1.744.656 3.622.87 5.468.625a59.366 59.366 0 0 0 6.064-1.42 49.196 49.196 0 0 1 11.418-2.074 17.453 17.453 0 0 1 7.423 1.108 14.23 14.23 0 0 1 2.834 1.69l.75.54a14.995 14.995 0 0 0 11.546 1.335 17.306 17.306 0 0 0 2.905-1.42 27.854 27.854 0 0 1 3.102-1.634c4.69-1.988 8.231-.327 11.333 1.15a21.203 21.203 0 0 0 11.66 2.543 34.189 34.189 0 0 0 8.67-1.704 34.978 34.978 0 0 1 11.333-1.918H511v6.932h-76.5a28.42 28.42 0 0 0-9.308 1.62 41.058 41.058 0 0 1-10.256 2.03c-.718.01-1.389.01-2.012 0z" fill="#099AB9" opacity=".7"/></g><g><path fill="#099AB9" d="M0 295.976h511v11.868H0z"/><path fill="#FFF" d="M244.244 131.881h94.748v143.535h-94.748z"/><path fill="#099AB9" d="M246.983 272.552h-5.677V128.166h100.766v142.018h-5.678V133.838h-89.41z"/><path fill="#099AB9" d="M321.49 132.42h-5.678v-8.507h-48.26v8.365h-5.679v-14.037h59.617zM254.137 144.472h6.033v37.22h-6.033zM263.719 144.472h6.033v37.22h-6.033zM254.137 189.137h6.033v15.597h-6.033zM263.719 189.137h6.033v15.597h-6.033zM254.137 208.987h6.033v15.597h-6.033zM263.719 208.987h6.033v15.597h-6.033zM283.804 189.137h6.033v15.597h-6.033zM293.385 189.137h6.033v15.597h-6.033zM283.804 208.987h6.033v15.597h-6.033zM293.385 208.987h6.033v15.597h-6.033zM283.804 144.472h6.033v37.22h-6.033zM293.385 144.472h6.033v37.22h-6.033zM313.058 189.137h6.033v15.597h-6.033zM322.64 189.137h6.033v15.597h-6.033zM313.058 208.987h6.033v15.597h-6.033zM322.64 208.987h6.033v15.597h-6.033zM254.137 232.028h6.033v15.597h-6.033zM263.719 232.028h6.033v15.597h-6.033zM254.137 251.879h6.033v15.597h-6.033zM263.719 251.879h6.033v15.597h-6.033zM283.804 232.028h6.033v15.597h-6.033zM293.385 232.028h6.033v15.597h-6.033zM283.804 251.879h6.033v15.597h-6.033zM293.385 251.879h6.033v15.597h-6.033zM283.804 274.31h6.033v11.528h-6.033zM263.719 274.31h6.033v10.634h-6.033zM313.058 232.028h6.033v15.597h-6.033zM322.64 232.028h6.033v15.597h-6.033zM313.058 251.879h6.033v15.597h-6.033zM322.64 251.879h6.033v15.597h-6.033zM313.058 144.472h6.033v37.22h-6.033zM322.64 144.472h6.033v37.22h-6.033z"/><path fill="#099AB9" d="M274.407 129.23h3.903v154.566h-3.903zM304.925 129.23h3.903v146.754h-3.903z"/><path d="M278.112 291.708c-1.054 0-2.107-.071-3.151-.212a22.522 22.522 0 0 1-12.917-6.31c-8.418-8.337-37.005.638-48.744 6.026l-4.542-9.925c1.817-.823 44.528-20.12 60.95-3.857a11.545 11.545 0 0 0 6.729 3.247 18.754 18.754 0 0 0 9.652-1.744 615.637 615.637 0 0 1 8.73-3.644c5.35-2.198 9.58-3.928 15.77-7.09a29.83 29.83 0 0 1 8.247-2.949 32.91 32.91 0 0 1 8.516-.383 36.407 36.407 0 0 1 14.024 4.637c1.093.553 2.13 1.077 3.024 1.418l.17.07c1.66.724 4.755 2.057 34.734 3.673 11.81.638 130.433 0 131.625 0v10.89c-4.897 0-120.156.652-132.278 0-31.923-1.73-35.4-3.233-38.467-4.552h-.156c-1.22-.525-2.399-1.12-3.662-1.758a26.818 26.818 0 0 0-9.936-3.488 22.409 22.409 0 0 0-5.678.227 19.36 19.36 0 0 0-5.28 1.928c-6.6 3.403-11.242 5.303-16.622 7.5a337.351 337.351 0 0 0-8.517 3.574 31.668 31.668 0 0 1-12.221 2.722z" fill="#099AB9"/></g><g><path fill="#FFF" d="M36.335 358.016V278.54h13.957V167.842h7.81v-26.497h14.44V79.368h115.721v62.928h16.329v26.482h10.649V279.25h9.23v75.928"/><path fill="#099AB9" d="M41.205 345.811h-7.1v-70.677h193.333v67.853h-7.1V282.23H41.205z"/><path fill="#099AB9" d="M71.548 278.682h7.099v67.697h-7.099zM182.158 278.682h7.099v67.697h-7.099zM94.593 299.559h11.742v11.737H94.593zM114.557 299.559h11.742v11.737h-11.742zM134.52 299.559h11.742v11.737H134.52zM154.47 299.559h11.742v11.737H154.47zM95.232 95.916h9.314v9.31h-9.314zM115.295 95.916h9.314v9.31h-9.314zM135.358 95.916h9.314v9.31h-9.314zM155.421 95.916h9.314v9.31h-9.314zM95.232 116.225h9.314v9.31h-9.314zM115.295 116.225h9.314v9.31h-9.314zM135.358 116.225h9.314v9.31h-9.314zM155.421 116.225h9.314v9.31h-9.314zM94.593 319.016h11.742v11.737H94.593zM114.557 319.016h11.742v11.737h-11.742zM114.557 339.325h11.742v11.737h-11.742zM134.52 319.016h11.742v11.737H134.52zM154.47 319.016h11.742v11.737H154.47zM134.52 339.325h11.742v11.737H134.52zM154.47 339.325h11.742v11.737H154.47zM48.532 293.073h18.203v5.081H48.532zM48.532 306.087h18.203v5.081H48.532zM48.532 319.116h18.203v5.081H48.532zM48.532 332.13h18.203v5.081H48.532zM194.979 293.073h18.203v5.081h-18.203zM194.979 306.087h18.203v5.081h-18.203zM194.979 319.116h18.203v5.081h-18.203zM194.979 332.13h18.203v5.081h-18.203zM105.682 164.734h5.878v96.748h-5.878zM127.463 164.734h5.878v96.748h-5.878zM151.957 164.734h5.878v96.748h-5.878z"/><path fill="#099AB9" d="M207.318 165.017h-7.1V146H60.588v19.017h-7.1v-26.113h153.831z"/><path fill="#099AB9" d="M192.594 141.615h-7.1V83.1H76.05v58.515h-7.1v-65.61h123.645zM185.154 181.665h18.203v3.86h-18.203zM185.154 194.835h18.203v3.86h-18.203zM185.154 208.02h18.203v3.86h-18.203zM185.154 221.19h18.203v3.86h-18.203zM185.154 234.36h18.203v3.86h-18.203zM185.154 247.545h18.203v3.86h-18.203zM185.154 260.715h18.203v3.86h-18.203zM57.463 181.665h18.203v3.86H57.463zM57.463 194.835h18.203v3.86H57.463zM57.463 208.02h18.203v3.86H57.463zM57.463 221.19h18.203v3.86H57.463zM57.463 234.36h18.203v3.86H57.463zM57.463 247.545h18.203v3.86H57.463zM57.463 260.715h18.203v3.86H57.463z"/><path fill="#099AB9" d="M88.743 278.682h-7.1V171.674H51.486v107.008h-7.1V164.578h44.358zM216.42 278.682h-7.1V171.674h-30.144v107.008h-7.1V164.578h44.344zM95.757 80.56l-6.063-3.69 20.802-34.16 27.105.298-.085 7.096-23.059-.256z"/><path fill="#099AB9" d="M165.062 80.56l-18.7-30.712-23.073.256-.085-7.096 27.12-.298 20.801 34.16zM0 343.086c9.902-6.429 22.873-11.013 35.604-6.897 1.697.553 3.861 1.42 6.153 2.342 2.292.922 4.88 1.958 6.832 2.597 2.603.851 7.228.61 11.316-.596a62.663 62.663 0 0 0 6.408-2.441c1.952-.824 3.975-1.675 6.238-2.441 17.795-5.99 41.022 2.838 51.843 10.998a49.713 49.713 0 0 1 2.235 1.817 18.508 18.508 0 0 0 2.688 2.044c3.65 2.114 11.033 3.08 17.964 2.341 7.823-.823 13.551-1.802 17.95-4.073a30.444 30.444 0 0 0 4.541-4.016c3.268-3.208 6.96-6.855 11.444-8.345 8.487-2.838 18.544-3.307 27.258-3.406 1.98 0 3.946-.085 5.884-.142 8.912-.284 18.12-.582 27.018 3.278.933.412 1.952.909 3.07 1.42 5.261 2.597 12.476 6.159 27.187 6.159H511v13.851H271.59c-17.936 0-27.54-4.74-33.284-7.578-.905-.44-1.711-.852-2.46-1.178-6.055-2.626-13.029-2.413-21.092-2.143-2.037 0-4.088.128-6.181.156-7.2.07-16.338.454-23.057 2.696-1.415.483-4.244 3.265-6.125 5.095a34.664 34.664 0 0 1-7.907 6.444c-6.323 3.264-13.424 4.541-22.817 5.535-2.02.21-4.05.314-6.082.312-6.846 0-14.584-1.164-20.242-4.442a30.757 30.757 0 0 1-4.725-3.477c-.523-.44-1.032-.88-1.598-1.306-8.275-6.245-26.975-13.028-39.14-8.927-1.782.596-3.48 1.32-5.276 2.072a73.954 73.954 0 0 1-7.809 2.938c-2.574.766-11.585 3.08-19.492.497-2.376-.78-5.064-1.86-7.667-2.839-2.079-.823-4.045-1.618-5.29-2.015C20.157 345.796 6.45 353.986 0 360.77"/></g></g></svg>