<?xml version="1.0" encoding="UTF-8"?>
<svg width="511px" height="400px" viewBox="0 0 511 400" version="1.1" xmlns="http://www.w3.org/2000/svg" xmlns:xlink="http://www.w3.org/1999/xlink">
    <!-- Generator: Sketch 48.2 (47327) - http://www.bohemiancoding.com/sketch -->
    <title>cityscape</title>
    <desc>Created with Sketch.</desc>
    <defs></defs>
    <g id="Page-1" stroke="none" stroke-width="1" fill="none" fill-rule="evenodd">
        <g id="cityscape" fill-rule="nonzero">
            <g id="Your_Artwork">
                <polyline id="Shape" fill="#FFF200" points="0 0 510.985806 0 510.985806 400 0 400 0 0"></polyline>
                <rect id="Rectangle-path" fill="#099AB9" opacity="0.2" x="0" y="154.230306" width="510.985806" height="1.97302778"></rect>
                <rect id="Rectangle-path" fill="#099AB9" opacity="0.3" x="0" y="161.299139" width="510.985806" height="2.96663889"></rect>
                <rect id="Rectangle-path" fill="#099AB9" opacity="0.5" x="0" y="179.993222" width="510.985806" height="4.95386111"></rect>
                <rect id="Rectangle-path" fill="#099AB9" opacity="0.6" x="0" y="191.561694" width="510.985806" height="5.93327778"></rect>
                <rect id="Rectangle-path" fill="#099AB9" opacity="0.7" x="0" y="205.018028" width="241.57525" height="6.92688889"></rect>
                <rect id="Rectangle-path" fill="#099AB9" opacity="0.8" x="0" y="220.348028" width="510.985806" height="7.9205"></rect>
                <rect id="Rectangle-path" fill="#099AB9" opacity="0.9" x="0" y="236.884556" width="510.985806" height="8.41730556"></rect>
                <rect id="Rectangle-path" fill="#099AB9" x="0" y="254.485667" width="510.985806" height="9.89352778"></rect>
                <rect id="Rectangle-path" fill="#099AB9" x="0" y="274.3295" width="153.598083" height="10.8871389"></rect>
                <rect id="Rectangle-path" fill="#099AB9" x="0" y="319.226528" width="510.985806" height="12.8743611"></rect>
            </g>
            <g id="building_4" transform="translate(421.000000, 106.000000)">
                <polygon id="Shape" fill="#FFF200" points="5.27703704 9.32166667 0.154074074 9.32166667 0.154074074 68 35.5222222 67.9291667 17.8311111 1.6575 8.12 1.6575"></polygon>
                <polygon id="Shape" fill="#FFF200" points="30.3851852 9.23666667 27.5562963 1.6575 17.8311111 1.6575 35.5222222 67.3058333 35.5222222 9.23666667"></polygon>
                <g id="Group" opacity="0.4" fill="#099AB9">
                    <polygon id="Shape" points="2.26518519 67.3058333 0.154074074 67.3058333 0.154074074 8.34416667 5.30518519 8.34416667 7.97925926 0.793333333 27.7814815 0.793333333 30.4555556 8.34416667 35.6066667 8.34416667 35.6066667 63.2258333 33.4955556 63.2258333 33.4955556 10.4691667 28.9637037 10.4691667 26.3037037 2.91833333 9.47111111 2.91833333 6.79703704 10.4691667 2.26518519 10.4691667"></polygon>
                    <rect id="Rectangle-path" x="4.54518519" y="13.2458333" width="7.52962963" height="2.0825"></rect>
                    <rect id="Rectangle-path" x="14.2844444" y="13.2458333" width="7.52962963" height="2.0825"></rect>
                    <rect id="Rectangle-path" x="14.2844444" y="8.2025" width="7.52962963" height="2.0825"></rect>
                    <rect id="Rectangle-path" x="23.8688889" y="13.2458333" width="7.52962963" height="2.0825"></rect>
                    <rect id="Rectangle-path" x="4.54518519" y="18.1475" width="7.52962963" height="2.0825"></rect>
                    <rect id="Rectangle-path" x="4.54518519" y="24.8341667" width="2.12518519" height="2.13916667"></rect>
                    <rect id="Rectangle-path" x="9.48518519" y="24.8341667" width="2.12518519" height="2.13916667"></rect>
                    <rect id="Rectangle-path" x="14.4392593" y="24.8341667" width="2.12518519" height="2.13916667"></rect>
                    <rect id="Rectangle-path" x="19.3792593" y="24.8341667" width="2.12518519" height="2.13916667"></rect>
                    <rect id="Rectangle-path" x="24.3192593" y="24.8341667" width="2.12518519" height="2.13916667"></rect>
                    <rect id="Rectangle-path" x="29.2733333" y="24.8341667" width="2.12518519" height="2.13916667"></rect>
                    <rect id="Rectangle-path" x="4.54518519" y="29.75" width="2.12518519" height="2.13916667"></rect>
                    <rect id="Rectangle-path" x="9.48518519" y="29.75" width="2.12518519" height="2.13916667"></rect>
                    <rect id="Rectangle-path" x="14.4392593" y="29.75" width="2.12518519" height="2.13916667"></rect>
                    <rect id="Rectangle-path" x="19.3792593" y="29.75" width="2.12518519" height="2.13916667"></rect>
                    <rect id="Rectangle-path" x="24.3192593" y="29.75" width="2.12518519" height="2.13916667"></rect>
                    <rect id="Rectangle-path" x="29.2733333" y="29.75" width="2.12518519" height="2.13916667"></rect>
                    <rect id="Rectangle-path" x="4.54518519" y="34.6658333" width="2.12518519" height="2.13916667"></rect>
                    <rect id="Rectangle-path" x="9.48518519" y="34.6658333" width="2.12518519" height="2.13916667"></rect>
                    <rect id="Rectangle-path" x="14.4392593" y="34.6658333" width="2.12518519" height="2.13916667"></rect>
                    <rect id="Rectangle-path" x="19.3792593" y="34.6658333" width="2.12518519" height="2.13916667"></rect>
                    <rect id="Rectangle-path" x="24.3192593" y="34.6658333" width="2.12518519" height="2.13916667"></rect>
                    <rect id="Rectangle-path" x="29.2733333" y="34.6658333" width="2.12518519" height="2.13916667"></rect>
                    <rect id="Rectangle-path" x="4.54518519" y="39.5958333" width="2.12518519" height="2.13916667"></rect>
                    <rect id="Rectangle-path" x="9.48518519" y="39.5958333" width="2.12518519" height="2.13916667"></rect>
                    <rect id="Rectangle-path" x="14.4392593" y="39.5958333" width="2.12518519" height="2.13916667"></rect>
                    <rect id="Rectangle-path" x="19.3792593" y="39.5958333" width="2.12518519" height="2.13916667"></rect>
                    <rect id="Rectangle-path" x="24.3192593" y="39.5958333" width="2.12518519" height="2.13916667"></rect>
                    <rect id="Rectangle-path" x="29.2733333" y="39.5958333" width="2.12518519" height="2.13916667"></rect>
                    <rect id="Rectangle-path" x="4.54518519" y="44.5116667" width="2.12518519" height="2.13916667"></rect>
                    <rect id="Rectangle-path" x="9.48518519" y="44.5116667" width="2.12518519" height="2.13916667"></rect>
                    <rect id="Rectangle-path" x="14.4392593" y="44.5116667" width="2.12518519" height="2.13916667"></rect>
                    <rect id="Rectangle-path" x="19.3792593" y="44.5116667" width="2.12518519" height="2.13916667"></rect>
                    <rect id="Rectangle-path" x="24.3192593" y="44.5116667" width="2.12518519" height="2.13916667"></rect>
                    <rect id="Rectangle-path" x="29.2733333" y="44.5116667" width="2.12518519" height="2.13916667"></rect>
                    <rect id="Rectangle-path" x="4.54518519" y="49.4275" width="2.12518519" height="2.13916667"></rect>
                    <rect id="Rectangle-path" x="9.48518519" y="49.4275" width="2.12518519" height="2.13916667"></rect>
                    <rect id="Rectangle-path" x="14.4392593" y="49.4275" width="2.12518519" height="2.13916667"></rect>
                    <rect id="Rectangle-path" x="19.3792593" y="49.4275" width="2.12518519" height="2.13916667"></rect>
                    <rect id="Rectangle-path" x="24.3192593" y="49.4275" width="2.12518519" height="2.13916667"></rect>
                    <rect id="Rectangle-path" x="29.2733333" y="49.4275" width="2.12518519" height="2.13916667"></rect>
                    <rect id="Rectangle-path" x="4.54518519" y="54.3433333" width="2.12518519" height="2.13916667"></rect>
                    <rect id="Rectangle-path" x="9.48518519" y="54.3433333" width="2.12518519" height="2.13916667"></rect>
                    <rect id="Rectangle-path" x="14.4392593" y="54.3433333" width="2.12518519" height="2.13916667"></rect>
                    <rect id="Rectangle-path" x="19.3792593" y="54.3433333" width="2.12518519" height="2.13916667"></rect>
                    <rect id="Rectangle-path" x="24.3192593" y="54.3433333" width="2.12518519" height="2.13916667"></rect>
                    <rect id="Rectangle-path" x="29.2733333" y="54.3433333" width="2.12518519" height="2.13916667"></rect>
                    <rect id="Rectangle-path" x="4.54518519" y="59.2733333" width="2.12518519" height="2.13916667"></rect>
                    <rect id="Rectangle-path" x="9.48518519" y="59.2733333" width="2.12518519" height="2.13916667"></rect>
                    <rect id="Rectangle-path" x="14.4392593" y="59.2733333" width="2.12518519" height="2.13916667"></rect>
                    <rect id="Rectangle-path" x="19.3792593" y="59.2733333" width="2.12518519" height="2.13916667"></rect>
                    <rect id="Rectangle-path" x="24.3192593" y="59.2733333" width="2.12518519" height="2.13916667"></rect>
                    <rect id="Rectangle-path" x="29.2733333" y="59.2733333" width="2.12518519" height="2.13916667"></rect>
                    <rect id="Rectangle-path" x="9.48518519" y="64.1891667" width="2.12518519" height="2.13916667"></rect>
                    <rect id="Rectangle-path" x="14.4392593" y="64.1891667" width="2.12518519" height="2.13916667"></rect>
                    <rect id="Rectangle-path" x="19.3792593" y="64.1891667" width="2.12518519" height="2.13916667"></rect>
                    <rect id="Rectangle-path" x="24.3192593" y="64.1891667" width="2.12518519" height="2.13916667"></rect>
                    <rect id="Rectangle-path" x="14.2844444" y="18.1475" width="7.52962963" height="2.0825"></rect>
                    <rect id="Rectangle-path" x="23.8688889" y="18.1475" width="7.52962963" height="2.0825"></rect>
                </g>
            </g>
            <g id="back_wave" transform="translate(0.000000, 167.000000)">
                <path d="M480.169667,6.53125 C474.760863,6.38320749 469.373181,5.81302741 464.058972,4.82625 C462.02373,4.44185431 459.966605,4.17554688 457.898583,4.02875 C455.227826,4.17104107 452.657847,5.06458902 450.503278,6.6 C447.959121,8.29546445 445.043984,9.39677036 441.986611,9.8175 C441.721865,9.83217866 441.456469,9.83217866 441.191722,9.8175 C439.492464,9.73658143 437.820825,9.36898219 436.252056,8.73125 C435.480666,8.43234465 434.73541,8.07368282 434.023528,7.65875 L433.058306,7.15 C430.943333,6.105 427.536667,6.33875 425.961083,6.44875 L424.967472,6.44875 L412.817028,6.44875 L412.817028,2.75 L424.967472,2.75 L425.691389,2.75 C427.678611,2.6125 431.823389,2.3375 434.917778,3.85 C435.301028,4.0425 435.684278,4.24875 436.053333,4.455 C436.585181,4.76529094 437.140324,5.03646954 437.714083,5.26625 C438.943708,5.78087765 440.264241,6.06099131 441.603361,6.09125 C444.096961,5.70763547 446.463863,4.76603742 448.516056,3.34125 C451.262635,1.4572704 454.508513,0.374199161 457.870194,0.22 C460.189136,0.32935179 462.495683,0.614389217 464.768694,1.0725 C469.866799,2.02612795 475.036305,2.57793436 480.226444,2.7225" id="Shape" fill="#FFF200"></path>
                <path d="M441.205917,9.85875 C439.506658,9.77783143 437.835019,9.41023219 436.26625,8.7725 C435.494607,8.47414494 434.749305,8.1154614 434.037722,7.7 L433.0725,7.19125 C430.957528,6.14625 427.550861,6.38 425.975278,6.49 L424.981667,6.49 L0,6.49 L0,2.75 L424.910694,2.75 L425.634611,2.75 C427.621833,2.6125 431.766611,2.3375 434.861,3.85 C435.24425,4.0425 435.6275,4.24875 435.996556,4.455 C436.528403,4.76529094 437.083546,5.03646954 437.657306,5.26625 C438.88704,5.78054906 440.207506,6.06064855 441.546583,6.09125 C444.040183,5.70763547 446.407085,4.76603742 448.459278,3.34125 C451.205857,1.4572704 454.451736,0.374199161 457.813417,0.22 C460.132353,0.329407862 462.438895,0.614444732 464.711917,1.0725 C469.810021,2.02612795 474.979528,2.57793436 480.169667,2.7225 L511,2.7225 L511,6.55875 L480.169667,6.55875 C474.760863,6.41070749 469.373181,5.84052741 464.058972,4.85375 C462.02373,4.46935431 459.966605,4.20304688 457.898583,4.05625 C455.227826,4.19854107 452.657847,5.09208902 450.503278,6.6275 C447.959121,8.32296445 445.043984,9.42427036 441.986611,9.845 C441.726851,9.86374075 441.466209,9.86833132 441.205917,9.85875 Z" id="Shape" fill="#099AB9" opacity="0.4"></path>
            </g>
            <g id="building_3" transform="translate(308.000000, 92.000000)">
                <polygon id="Shape" fill="#FFF200" points="55.9216667 121.008523 51.6716667 121.008523 51.6716667 97.6704545 101.566667 97.6704545 101.566667 120.610795 97.3166667 120.610795"></polygon>
                <polygon id="Shape" fill="#FFF200" points="58.3866667 99.8863636 58.3866667 35.0426136 94.8516667 35.0426136 94.8516667 98.6789773"></polygon>
                <g id="Group" opacity="0.7" transform="translate(51.416667, 0.000000)" fill="#099AB9">
                    <polygon id="Shape" points="4.505 118.139205 0.255 118.139205 0.255 94.8011364 50.15 94.8011364 50.15 117.727273 45.9 117.727273 45.9 99.0625 4.505 99.0625"></polygon>
                    <polygon id="Shape" points="11.22 97.0170455 6.97 97.0170455 6.97 33.9204545 43.435 33.9204545 43.435 95.8380682 39.185 95.8380682 39.185 38.0681818 11.22 38.0681818"></polygon>
                    <polygon id="Shape" points="17.9491667 35.7670455 13.6991667 35.7670455 13.6991667 28.2670455 36.7058333 28.2670455 36.7058333 35.6676136 32.4558333 35.6676136 32.4558333 32.5284091 17.9491667 32.5284091"></polygon>
                    <rect id="Rectangle-path" x="9.435" y="40.2698864" width="31.705" height="1.42045455"></rect>
                    <rect id="Rectangle-path" x="9.435" y="44.1619318" width="31.705" height="1.42045455"></rect>
                    <rect id="Rectangle-path" x="9.435" y="48.0397727" width="31.705" height="1.42045455"></rect>
                    <rect id="Rectangle-path" x="9.435" y="51.9318182" width="31.705" height="1.42045455"></rect>
                    <rect id="Rectangle-path" x="9.435" y="55.8096591" width="31.705" height="1.42045455"></rect>
                    <rect id="Rectangle-path" x="9.435" y="59.7017045" width="31.705" height="1.42045455"></rect>
                    <rect id="Rectangle-path" x="9.435" y="63.5795455" width="31.705" height="1.42045455"></rect>
                    <rect id="Rectangle-path" x="9.435" y="67.4715909" width="31.705" height="1.42045455"></rect>
                    <rect id="Rectangle-path" x="9.435" y="71.3494318" width="31.705" height="1.42045455"></rect>
                    <rect id="Rectangle-path" x="9.435" y="75.2414773" width="31.705" height="1.42045455"></rect>
                    <rect id="Rectangle-path" x="9.435" y="79.1193182" width="31.705" height="1.42045455"></rect>
                    <rect id="Rectangle-path" x="8.925" y="83.0113636" width="31.705" height="1.42045455"></rect>
                    <rect id="Rectangle-path" x="8.925" y="86.8892045" width="31.705" height="1.42045455"></rect>
                    <rect id="Rectangle-path" x="8.925" y="90.7670455" width="31.705" height="1.42045455"></rect>
                    <rect id="Rectangle-path" x="3.54166667" y="101.946023" width="43.6758333" height="1.42045455"></rect>
                    <rect id="Rectangle-path" x="3.54166667" y="105.994318" width="43.6758333" height="1.42045455"></rect>
                    <rect id="Rectangle-path" x="3.54166667" y="110.042614" width="43.6758333" height="1.42045455"></rect>
                    <rect id="Rectangle-path" x="3.54166667" y="114.090909" width="43.6758333" height="1.42045455"></rect>
                    <rect id="Rectangle-path" x="17.4816667" y="0.539772727" width="2.83333333" height="30.4403409"></rect>
                    <rect id="Rectangle-path" x="23.3891667" y="14.6164773" width="2.83333333" height="16.3494318"></rect>
                </g>
                <path d="M104.924167,123.721591 C100.377705,123.702646 95.9025538,122.586957 91.8766667,120.46875 C89.0433333,119.048295 87.8816667,118.678977 86.125,119.417614 C85.3269354,119.788552 84.5511689,120.20593 83.8016667,120.667614 C82.4593702,121.498811 81.0351722,122.189014 79.5516667,122.727273 C73.6674398,124.528328 67.2983114,123.75456 62.0133333,120.596591 C61.6591667,120.355114 61.3191667,120.113636 60.9791667,119.857955 C60.5406711,119.497008 60.0658898,119.182814 59.5625,118.920455 C58.1392889,118.449551 56.6360815,118.27081 55.1425,118.394886 C51.8017209,118.62814 48.4984036,119.242913 45.2966667,120.227273 C43.0636942,120.863617 40.7985513,121.380446 38.5108333,121.775568 C35.6814125,122.175274 32.797813,121.897825 30.0958333,120.965909 C28.1705173,120.329265 26.1588578,119.993891 24.1316667,119.971591 L0.303333333,119.971591 L0.303333333,113.068182 L24.1458333,113.068182 C26.8097278,113.087029 29.455568,113.508431 31.9941667,114.318182 C33.7380379,114.973868 35.616194,115.188531 37.4625,114.943182 C39.5069098,114.575928 41.530781,114.101796 43.5258333,113.522727 C47.2326435,112.384117 51.0604936,111.688017 54.93,111.448864 C57.4552438,111.275423 59.9879523,111.653437 62.3533333,112.556818 C63.3355402,113.012609 64.2624199,113.579756 65.1158333,114.247159 L65.8808333,114.786932 C69.3908111,116.76393 73.5455109,117.244994 77.4125,116.122159 C78.4223771,115.739963 79.3946186,115.264431 80.3166667,114.701705 C81.3154628,114.092177 82.3516967,113.546581 83.4191667,113.068182 C88.1083333,111.079545 91.65,112.741477 94.7525,114.21875 C98.3169541,116.165355 102.362854,117.047679 106.411667,116.761364 C109.391593,116.577995 112.334845,116.004962 115.166667,115.056818 C118.813464,113.796648 122.64272,113.148734 126.5,113.139205 L194.386667,113.139205 L194.386667,120.071023 L126.5,120.071023 C123.329221,120.087429 120.183442,120.634731 117.1925,121.690341 C113.873636,122.801871 110.426942,123.48446 106.935833,123.721591 C106.218056,123.731061 105.5475,123.731061 104.924167,123.721591 Z" id="Shape" fill="#FFF200"></path>
                <path d="M104.924167,123.721591 C100.377705,123.702646 95.9025538,122.586957 91.8766667,120.46875 C89.0433333,119.048295 87.8816667,118.678977 86.125,119.417614 C85.3267902,119.788261 84.5510069,120.205648 83.8016667,120.667614 C82.4596135,121.499255 81.0353685,122.189481 79.5516667,122.727273 C73.6674398,124.528328 67.2983114,123.75456 62.0133333,120.596591 C61.6591667,120.355114 61.3191667,120.113636 60.9791667,119.872159 C60.5409789,119.510794 60.0661524,119.19657 59.5625,118.934659 C58.1393733,118.463375 56.6360883,118.284624 55.1425,118.409091 C51.8017365,118.642467 48.498433,119.257238 45.2966667,120.241477 C43.0636611,120.877692 40.7985251,121.394519 38.5108333,121.789773 C35.6814125,122.189479 32.797813,121.91203 30.0958333,120.980114 C28.1705173,120.34347 26.1588578,120.008095 24.1316667,119.985795 L0.303333333,119.985795 L0.303333333,113.068182 L24.1458333,113.068182 C26.8097278,113.087029 29.455568,113.508431 31.9941667,114.318182 C33.7380379,114.973868 35.616194,115.188531 37.4625,114.943182 C39.5069516,114.576131 41.5308333,114.101997 43.5258333,113.522727 C47.2372812,112.383277 51.0699198,111.687171 54.9441667,111.448864 C57.4694105,111.275423 60.002119,111.653437 62.3675,112.556818 C63.3740413,113.00835 64.3248591,113.5756 65.2008333,114.247159 L65.9516667,114.786932 C69.4660331,116.766275 73.6260183,117.24736 77.4975,116.122159 C78.5075728,115.740418 79.4798557,115.264866 80.4016667,114.701705 C81.4006481,114.092505 82.436861,113.54692 83.5041667,113.068182 C88.1933333,111.079545 91.735,112.741477 94.8375,114.21875 C98.4019541,116.165355 102.447854,117.047679 106.496667,116.761364 C109.447914,116.570665 112.362127,115.997723 115.166667,115.056818 C118.813528,113.796901 122.642742,113.148993 126.5,113.139205 L203,113.139205 L203,120.071023 L126.5,120.071023 C123.329244,120.087694 120.183509,120.634989 117.1925,121.690341 C113.873636,122.801871 110.426942,123.48446 106.935833,123.721591 C106.218056,123.731061 105.5475,123.731061 104.924167,123.721591 Z" id="Shape" fill="#099AB9" opacity="0.7"></path>
            </g>
            <g id="building_2" transform="translate(0.000000, 118.000000)">
                <rect id="Rectangle-path" fill="#099AB9" x="0" y="177.976119" width="511" height="11.8679104"></rect>
                <rect id="Rectangle-path" fill="#FFF200" x="244.243806" y="13.8813433" width="94.7479167" height="143.535075"></rect>
                <polygon id="Shape" fill="#099AB9" points="246.983333 154.552239 241.305556 154.552239 241.305556 10.1664179 342.071917 10.1664179 342.071917 152.184328 336.394139 152.184328 336.394139 15.8380597 246.983333 15.8380597"></polygon>
                <polygon id="Shape" fill="#099AB9" points="321.489972 14.4201493 315.812194 14.4201493 315.812194 5.91268657 267.551083 5.91268657 267.551083 14.2783582 261.873306 14.2783582 261.873306 0.241044776 321.489972 0.241044776"></polygon>
                <rect id="Rectangle-path" fill="#099AB9" x="254.137333" y="26.4723881" width="6.03263889" height="37.2201493"></rect>
                <rect id="Rectangle-path" fill="#099AB9" x="263.718583" y="26.4723881" width="6.03263889" height="37.2201493"></rect>
                <rect id="Rectangle-path" fill="#099AB9" x="254.137333" y="71.1365672" width="6.03263889" height="15.5970149"></rect>
                <rect id="Rectangle-path" fill="#099AB9" x="263.718583" y="71.1365672" width="6.03263889" height="15.5970149"></rect>
                <rect id="Rectangle-path" fill="#099AB9" x="254.137333" y="90.9873134" width="6.03263889" height="15.5970149"></rect>
                <rect id="Rectangle-path" fill="#099AB9" x="263.718583" y="90.9873134" width="6.03263889" height="15.5970149"></rect>
                <rect id="Rectangle-path" fill="#099AB9" x="283.803722" y="71.1365672" width="6.03263889" height="15.5970149"></rect>
                <rect id="Rectangle-path" fill="#099AB9" x="293.384972" y="71.1365672" width="6.03263889" height="15.5970149"></rect>
                <rect id="Rectangle-path" fill="#099AB9" x="283.803722" y="90.9873134" width="6.03263889" height="15.5970149"></rect>
                <rect id="Rectangle-path" fill="#099AB9" x="293.384972" y="90.9873134" width="6.03263889" height="15.5970149"></rect>
                <rect id="Rectangle-path" fill="#099AB9" x="283.803722" y="26.4723881" width="6.03263889" height="37.2201493"></rect>
                <rect id="Rectangle-path" fill="#099AB9" x="293.384972" y="26.4723881" width="6.03263889" height="37.2201493"></rect>
                <rect id="Rectangle-path" fill="#099AB9" x="313.058472" y="71.1365672" width="6.03263889" height="15.5970149"></rect>
                <rect id="Rectangle-path" fill="#099AB9" x="322.639722" y="71.1365672" width="6.03263889" height="15.5970149"></rect>
                <rect id="Rectangle-path" fill="#099AB9" x="313.058472" y="90.9873134" width="6.03263889" height="15.5970149"></rect>
                <rect id="Rectangle-path" fill="#099AB9" x="322.639722" y="90.9873134" width="6.03263889" height="15.5970149"></rect>
                <rect id="Rectangle-path" fill="#099AB9" x="254.137333" y="114.028358" width="6.03263889" height="15.5970149"></rect>
                <rect id="Rectangle-path" fill="#099AB9" x="263.718583" y="114.028358" width="6.03263889" height="15.5970149"></rect>
                <rect id="Rectangle-path" fill="#099AB9" x="254.137333" y="133.879104" width="6.03263889" height="15.5970149"></rect>
                <rect id="Rectangle-path" fill="#099AB9" x="263.718583" y="133.879104" width="6.03263889" height="15.5970149"></rect>
                <rect id="Rectangle-path" fill="#099AB9" x="283.803722" y="114.028358" width="6.03263889" height="15.5970149"></rect>
                <rect id="Rectangle-path" fill="#099AB9" x="293.384972" y="114.028358" width="6.03263889" height="15.5970149"></rect>
                <rect id="Rectangle-path" fill="#099AB9" x="283.803722" y="133.879104" width="6.03263889" height="15.5970149"></rect>
                <rect id="Rectangle-path" fill="#099AB9" x="293.384972" y="133.879104" width="6.03263889" height="15.5970149"></rect>
                <rect id="Rectangle-path" fill="#099AB9" x="283.803722" y="156.310448" width="6.03263889" height="11.5276119"></rect>
                <rect id="Rectangle-path" fill="#099AB9" x="263.718583" y="156.310448" width="6.03263889" height="10.6343284"></rect>
                <rect id="Rectangle-path" fill="#099AB9" x="313.058472" y="114.028358" width="6.03263889" height="15.5970149"></rect>
                <rect id="Rectangle-path" fill="#099AB9" x="322.639722" y="114.028358" width="6.03263889" height="15.5970149"></rect>
                <rect id="Rectangle-path" fill="#099AB9" x="313.058472" y="133.879104" width="6.03263889" height="15.5970149"></rect>
                <rect id="Rectangle-path" fill="#099AB9" x="322.639722" y="133.879104" width="6.03263889" height="15.5970149"></rect>
                <rect id="Rectangle-path" fill="#099AB9" x="313.058472" y="26.4723881" width="6.03263889" height="37.2201493"></rect>
                <rect id="Rectangle-path" fill="#099AB9" x="322.639722" y="26.4723881" width="6.03263889" height="37.2201493"></rect>
                <rect id="Rectangle-path" fill="#099AB9" x="274.407" y="11.2298507" width="3.90347222" height="154.566418"></rect>
                <rect id="Rectangle-path" fill="#099AB9" x="304.925056" y="11.2298507" width="3.90347222" height="146.753731"></rect>
                <path d="M278.11175,173.708209 C277.057773,173.70805 276.005002,173.636994 274.960583,173.495522 C270.080223,172.859286 265.543055,170.642959 262.043639,167.185821 C253.626333,158.848507 225.038722,167.823881 213.299917,173.21194 L208.757694,163.286567 C210.574583,162.464179 253.285667,143.166418 269.708639,159.429851 C271.528801,161.227607 273.895654,162.369851 276.436806,162.676866 C279.752166,162.962027 283.083741,162.360055 286.089028,160.932836 C289.410528,159.514925 292.221028,158.352239 294.818611,157.288806 C300.169917,155.091045 304.399861,153.361194 310.588639,150.199254 C313.17724,148.815856 315.956229,147.822044 318.835611,147.25 C321.645831,146.753664 324.508788,146.62497 327.352278,146.867164 C332.295215,147.438389 337.068301,149.016438 341.376389,151.503731 C342.469361,152.056716 343.505556,152.581343 344.399806,152.921642 L344.570139,152.992537 C346.230889,153.715672 349.325278,155.048507 379.303944,156.664925 C391.113722,157.302985 509.736694,156.664925 510.929028,156.664925 L510.929028,167.554478 C506.031944,167.554478 390.773056,168.206716 378.651,167.554478 C346.727694,165.824627 343.250056,164.321642 340.184056,163.002985 L340.027917,163.002985 C338.807194,162.478358 337.629056,161.882836 336.36575,161.244776 C333.317277,159.437038 329.940035,158.251461 326.429639,157.756716 C324.535083,157.5911 322.627122,157.667336 320.751861,157.983582 C318.907144,158.366113 317.128255,159.015757 315.471528,159.91194 C308.871111,163.314925 304.229528,165.214925 298.849833,167.412687 C296.309028,168.447761 293.5695,169.56791 290.333167,170.985821 C286.481598,172.697515 282.326434,173.623101 278.11175,173.708209 Z" id="Shape" fill="#099AB9"></path>
            </g>
            <g id="building_1" transform="translate(0.000000, 42.000000)">
                <polyline id="Shape" fill="#FFF200" points="36.3349724 316.016376 36.3349724 236.540393 50.2924862 236.540393 50.2924862 125.841703 58.1018785 125.841703 58.1018785 99.3449782 72.5421547 99.3449782 72.5421547 37.3679039 188.263149 37.3679039 188.263149 100.295852 204.591878 100.295852 204.591878 126.778384 215.24105 126.778384 215.24105 237.25 224.470331 237.25 224.470331 313.177948"></polyline>
                <polygon id="Shape" fill="#099AB9" points="41.2051934 303.811135 34.1057459 303.811135 34.1057459 233.134279 227.437901 233.134279 227.437901 300.9869 220.338453 300.9869 220.338453 240.230349 41.2051934 240.230349"></polygon>
                <rect id="Rectangle-path" fill="#099AB9" x="71.548232" y="236.682314" width="7.09944751" height="67.6965066"></rect>
                <rect id="Rectangle-path" fill="#099AB9" x="182.157624" y="236.682314" width="7.09944751" height="67.6965066"></rect>
                <rect id="Rectangle-path" fill="#099AB9" x="94.5930387" y="257.558952" width="11.7424862" height="11.7368996"></rect>
                <rect id="Rectangle-path" fill="#099AB9" x="114.556685" y="257.558952" width="11.7424862" height="11.7368996"></rect>
                <rect id="Rectangle-path" fill="#099AB9" x="134.520331" y="257.558952" width="11.7424862" height="11.7368996"></rect>
                <rect id="Rectangle-path" fill="#099AB9" x="154.469779" y="257.558952" width="11.7424862" height="11.7368996"></rect>
                <rect id="Rectangle-path" fill="#099AB9" x="95.231989" y="53.9159389" width="9.31447514" height="9.31004367"></rect>
                <rect id="Rectangle-path" fill="#099AB9" x="115.295028" y="53.9159389" width="9.31447514" height="9.31004367"></rect>
                <rect id="Rectangle-path" fill="#099AB9" x="135.358066" y="53.9159389" width="9.31447514" height="9.31004367"></rect>
                <rect id="Rectangle-path" fill="#099AB9" x="155.421105" y="53.9159389" width="9.31447514" height="9.31004367"></rect>
                <rect id="Rectangle-path" fill="#099AB9" x="95.231989" y="74.2248908" width="9.31447514" height="9.31004367"></rect>
                <rect id="Rectangle-path" fill="#099AB9" x="115.295028" y="74.2248908" width="9.31447514" height="9.31004367"></rect>
                <rect id="Rectangle-path" fill="#099AB9" x="135.358066" y="74.2248908" width="9.31447514" height="9.31004367"></rect>
                <rect id="Rectangle-path" fill="#099AB9" x="155.421105" y="74.2248908" width="9.31447514" height="9.31004367"></rect>
                <rect id="Rectangle-path" fill="#099AB9" x="94.5930387" y="277.016376" width="11.7424862" height="11.7368996"></rect>
                <rect id="Rectangle-path" fill="#099AB9" x="114.556685" y="277.016376" width="11.7424862" height="11.7368996"></rect>
                <rect id="Rectangle-path" fill="#099AB9" x="114.556685" y="297.325328" width="11.7424862" height="11.7368996"></rect>
                <rect id="Rectangle-path" fill="#099AB9" x="134.520331" y="277.016376" width="11.7424862" height="11.7368996"></rect>
                <rect id="Rectangle-path" fill="#099AB9" x="154.469779" y="277.016376" width="11.7424862" height="11.7368996"></rect>
                <rect id="Rectangle-path" fill="#099AB9" x="134.520331" y="297.325328" width="11.7424862" height="11.7368996"></rect>
                <rect id="Rectangle-path" fill="#099AB9" x="154.469779" y="297.325328" width="11.7424862" height="11.7368996"></rect>
                <rect id="Rectangle-path" fill="#099AB9" x="48.5318232" y="251.073144" width="18.2029834" height="5.08078603"></rect>
                <rect id="Rectangle-path" fill="#099AB9" x="48.5318232" y="264.087336" width="18.2029834" height="5.08078603"></rect>
                <rect id="Rectangle-path" fill="#099AB9" x="48.5318232" y="277.115721" width="18.2029834" height="5.08078603"></rect>
                <rect id="Rectangle-path" fill="#099AB9" x="48.5318232" y="290.129913" width="18.2029834" height="5.08078603"></rect>
                <rect id="Rectangle-path" fill="#099AB9" x="194.979227" y="251.073144" width="18.2029834" height="5.08078603"></rect>
                <rect id="Rectangle-path" fill="#099AB9" x="194.979227" y="264.087336" width="18.2029834" height="5.08078603"></rect>
                <rect id="Rectangle-path" fill="#099AB9" x="194.979227" y="277.115721" width="18.2029834" height="5.08078603"></rect>
                <rect id="Rectangle-path" fill="#099AB9" x="194.979227" y="290.129913" width="18.2029834" height="5.08078603"></rect>
                <rect id="Rectangle-path" fill="#099AB9" x="105.682376" y="122.733624" width="5.87834254" height="96.7478166"></rect>
                <rect id="Rectangle-path" fill="#099AB9" x="127.463481" y="122.733624" width="5.87834254" height="96.7478166"></rect>
                <rect id="Rectangle-path" fill="#099AB9" x="151.956575" y="122.733624" width="5.87834254" height="96.7478166"></rect>
                <polygon id="Shape" fill="#099AB9" points="207.318066 123.017467 200.218619 123.017467 200.218619 104 60.5866851 104 60.5866851 123.017467 53.4872376 123.017467 53.4872376 96.9039301 207.318066 96.9039301"></polygon>
                <polygon id="Shape" fill="#099AB9" points="192.593812 99.6146288 185.494365 99.6146288 185.494365 41.1004367 76.0492818 41.1004367 76.0492818 99.6146288 68.9498343 99.6146288 68.9498343 34.0043668 192.593812 34.0043668"></polygon>
                <rect id="Rectangle-path" fill="#099AB9" x="185.153591" y="139.664847" width="18.2029834" height="3.86026201"></rect>
                <rect id="Rectangle-path" fill="#099AB9" x="185.153591" y="152.835153" width="18.2029834" height="3.86026201"></rect>
                <rect id="Rectangle-path" fill="#099AB9" x="185.153591" y="166.019651" width="18.2029834" height="3.86026201"></rect>
                <rect id="Rectangle-path" fill="#099AB9" x="185.153591" y="179.189956" width="18.2029834" height="3.86026201"></rect>
                <rect id="Rectangle-path" fill="#099AB9" x="185.153591" y="192.360262" width="18.2029834" height="3.86026201"></rect>
                <rect id="Rectangle-path" fill="#099AB9" x="185.153591" y="205.54476" width="18.2029834" height="3.86026201"></rect>
                <rect id="Rectangle-path" fill="#099AB9" x="185.153591" y="218.715066" width="18.2029834" height="3.86026201"></rect>
                <rect id="Rectangle-path" fill="#099AB9" x="57.4629282" y="139.664847" width="18.2029834" height="3.86026201"></rect>
                <rect id="Rectangle-path" fill="#099AB9" x="57.4629282" y="152.835153" width="18.2029834" height="3.86026201"></rect>
                <rect id="Rectangle-path" fill="#099AB9" x="57.4629282" y="166.019651" width="18.2029834" height="3.86026201"></rect>
                <rect id="Rectangle-path" fill="#099AB9" x="57.4629282" y="179.189956" width="18.2029834" height="3.86026201"></rect>
                <rect id="Rectangle-path" fill="#099AB9" x="57.4629282" y="192.360262" width="18.2029834" height="3.86026201"></rect>
                <rect id="Rectangle-path" fill="#099AB9" x="57.4629282" y="205.54476" width="18.2029834" height="3.86026201"></rect>
                <rect id="Rectangle-path" fill="#099AB9" x="57.4629282" y="218.715066" width="18.2029834" height="3.86026201"></rect>
                <polygon id="Shape" fill="#099AB9" points="88.7430939 236.682314 81.6436464 236.682314 81.6436464 129.673581 51.4851934 129.673581 51.4851934 236.682314 44.3857459 236.682314 44.3857459 122.577511 88.7430939 122.577511"></polygon>
                <polygon id="Shape" fill="#099AB9" points="216.419558 236.682314 209.32011 236.682314 209.32011 129.673581 179.175856 129.673581 179.175856 236.682314 172.076409 236.682314 172.076409 122.577511 216.419558 122.577511"></polygon>
                <polygon id="Shape" fill="#099AB9" points="95.7573481 38.5600437 89.6944199 34.8700873 110.495801 0.709606987 137.601492 1.00764192 137.516298 8.10371179 114.457293 7.84825328"></polygon>
                <polygon id="Shape" fill="#099AB9" points="165.062155 38.5600437 146.36221 7.84825328 123.289006 8.10371179 123.203812 1.00764192 150.323702 0.709606987 171.125083 34.8700873"></polygon>
                <path d="M0,301.086245 C9.9017301,294.657205 22.8729965,290.073144 35.6037924,294.188865 C37.3012318,294.742358 39.4654671,295.608079 41.7570104,296.530568 C44.0485536,297.453057 46.6371488,298.489083 48.5892042,299.127729 C51.1919446,299.979258 55.8174671,299.737991 59.9054671,298.531659 C62.0841154,297.835635 64.2232462,297.020738 66.313301,296.090611 C68.2653564,295.267467 70.2881384,294.415939 72.551391,293.649563 C90.3462145,287.66048 113.572844,296.487991 124.394021,304.648472 C125.186159,305.244541 125.907571,305.854803 126.628983,306.465066 C127.46098,307.226952 128.360586,307.911015 129.316595,308.508734 C132.96609,310.623362 140.349952,311.588428 147.281163,310.850437 C155.103529,310.027293 160.832388,309.048035 165.231585,306.777293 C166.874496,305.593336 168.395579,304.247881 169.772235,302.760917 C173.039806,299.553493 176.731737,295.906114 181.215806,294.415939 C189.703003,291.577511 199.760332,291.10917 208.473855,291.009825 C210.454201,291.009825 212.420401,290.924672 214.358311,290.867904 C223.269869,290.584061 232.478478,290.286026 241.375889,294.146288 C242.309481,294.55786 243.327945,295.054585 244.445426,295.565502 C249.707488,298.162664 256.921606,301.724891 271.632747,301.724891 L511,301.724891 L511,315.576419 L271.590311,315.576419 C253.654035,315.576419 244.049356,310.836245 238.306353,307.997817 C237.401052,307.55786 236.594768,307.146288 235.845066,306.819869 C229.790865,304.194323 222.817218,304.407205 214.754381,304.676856 C212.717453,304.676856 210.666381,304.804585 208.572872,304.832969 C201.3729,304.90393 192.235017,305.287118 185.515986,307.529476 C184.101453,308.012009 181.272388,310.793668 179.391059,312.624454 C177.086166,315.151396 174.42162,317.322608 171.48382,319.067686 C165.160858,322.331878 158.059903,323.60917 148.667405,324.60262 C146.646728,324.813119 144.616452,324.917338 142.584913,324.914847 C135.738574,324.914847 128.00108,323.751092 122.342948,320.472707 C120.661387,319.467196 119.079361,318.302888 117.618408,316.995633 C117.095031,316.555677 116.585799,316.115721 116.019986,315.689956 C107.744969,309.445415 89.0448443,302.661572 76.8798616,306.7631 C75.0975502,307.35917 73.4001107,308.082969 71.603654,308.835153 C69.0579356,309.960676 66.4510688,310.941487 63.7954325,311.772926 C61.2209827,312.539301 52.2104083,314.85262 44.3031696,312.269651 C41.9267543,311.489083 39.2391419,310.41048 36.6364014,309.431223 C34.5570381,308.608079 32.5908374,307.813319 31.3460484,307.415939 C20.1570934,303.796943 6.4502699,311.985808 3.5178012e-14,318.769651" id="Shape" fill="#099AB9"></path>
            </g>
        </g>
    </g>
</svg>