<svg width="100" height="400" viewBox="0 0 100 400" xmlns="http://www.w3.org/2000/svg"><title>cityscapeStripes</title><g fill-rule="nonzero" fill="none"><path fill="none" d="M0 0h100v400H0V0"/><g fill="#099AB9"><path opacity=".9" d="M0 237.102h100v8.417H0z"/><path opacity=".2" d="M0 154.472h100v1.973H0z"/><path opacity=".3" d="M0 161.522h100v2.967H0z"/><path opacity=".4" d="M100 173.762H0v-3.8h99.983z"/><path opacity=".6" d="M0 191.822h100v5.933H0z"/><path opacity=".5" d="M0 180.222h100v4.954H0z"/><path opacity=".8" d="M0 220.522h100v7.92H0z"/><path opacity=".7" d="M0 205.372h100v6.932H0z"/><path d="M.018 343.95H100v13.85H0zM0 319.465h100v12.874H0zM0 296.222h100v11.868H0zM0 274.898h100v10.887H0zM0 254.722h100v9.894H0z"/></g></g></svg>