<?xml version="1.0" encoding="UTF-8"?>
<svg width="16px" height="15px" viewBox="0 0 16 15" version="1.1" xmlns="http://www.w3.org/2000/svg" xmlns:xlink="http://www.w3.org/1999/xlink">
    <!-- Generator: Sketch 52.6 (67491) - http://www.bohemiancoding.com/sketch -->
    <title>arrowLink</title>
    <desc>Created with Sketch.</desc>
    <g id="arrowLink" stroke="none" stroke-width="1" fill="none" fill-rule="evenodd">
        <g id="Group" fill="#5C5C5C" fill-rule="nonzero">
            <path d="M1,8.5 C0.44771525,8.5 0,8.05228475 0,7.5 C0,6.94771525 0.44771525,6.5 1,6.5 L15,6.5 C15.5522847,6.5 16,6.94771525 16,7.5 C16,8.05228475 15.5522847,8.5 15,8.5 L1,8.5 Z" id="Path-3"></path>
            <path d="M9.23177872,2.1401844 C8.87821464,1.7159075 8.9355387,1.0853428 9.3598156,0.73177872 C9.7840925,0.378214639 10.4146572,0.435538703 10.7682213,0.8598156 L15.7682213,6.8598156 C16.0772596,7.23066155 16.0772596,7.76933845 15.7682213,8.1401844 L10.7682213,14.1401844 C10.4146572,14.5644613 9.7840925,14.6217854 9.3598156,14.2682213 C8.9355387,13.9146572 8.87821464,13.2840925 9.23177872,12.8598156 L13.6982917,7.5 L9.23177872,2.1401844 Z" id="Path-4"></path>
        </g>
    </g>
</svg>