<?xml version="1.0" encoding="UTF-8"?>
<svg width="28px" height="20px" viewBox="0 0 28 20" version="1.1" xmlns="http://www.w3.org/2000/svg" xmlns:xlink="http://www.w3.org/1999/xlink">
    <!-- Generator: Sketch 46.2 (44496) - http://www.bohemiancoding.com/sketch -->
    <title>arrowPrev</title>
    <desc>Created with Sketch.</desc>
    <defs></defs>
    <g id="Export" stroke="none" stroke-width="1" fill="none" fill-rule="evenodd">
        <g id="arrowPrev" fill-rule="nonzero" fill="#FFFFFF">
            <path d="M13.9400625,8.30149003 L1.70036185,8.30149003 C0.76127793,8.30149003 0,9.06276796 0,10.0018519 C0,10.9409358 0.76127793,11.7022137 1.70036185,11.7022137 L13.9400625,11.7022137 L10.5962788,15.7147541 C9.99509191,16.4361784 10.0925636,17.5083665 10.8139878,18.1095534 C11.5354121,18.7107403 12.6076002,18.6132686 13.2087871,17.8918444 L18.8695155,11.0989703 C18.9958834,10.9494882 19.0969181,10.7779006 19.1659947,10.5908321 C19.3036099,10.2040845 19.3036099,9.79961921 19.1722407,9.43082556 C19.0969181,9.22580314 18.9958834,9.05421552 18.8695155,8.90473341 L13.2087871,2.11185935 C12.6076002,1.39043511 11.5354121,1.29296345 10.8139878,1.89415033 C10.0925636,2.4953372 9.99509191,3.56752536 10.5962788,4.28894961 L13.9400625,8.30149003 Z" id="Combined-Shape" transform="translate(9.635000, 10.001852) scale(-1, 1) translate(-9.635000, -10.001852) "></path>
        </g>
    </g>
</svg>