<?xml version="1.0" encoding="UTF-8"?>
<svg width="28px" height="20px" viewBox="0 0 28 20" version="1.1" xmlns="http://www.w3.org/2000/svg" xmlns:xlink="http://www.w3.org/1999/xlink">
    <!-- Generator: Sketch 46.2 (44496) - http://www.bohemiancoding.com/sketch -->
    <title>arrowNext</title>
    <desc>Created with Sketch.</desc>
    <defs></defs>
    <g id="Export" stroke="none" stroke-width="1" fill="none" fill-rule="evenodd">
        <g id="arrowNext" fill-rule="nonzero" fill="#FFFFFF">
            <path d="M21.9400625,8.30149003 L9.70036185,8.30149003 C8.76127793,8.30149003 8,9.06276796 8,10.0018519 C8,10.9409358 8.76127793,11.7022137 9.70036185,11.7022137 L21.9400625,11.7022137 L18.5962788,15.7147541 C17.9950919,16.4361784 18.0925636,17.5083665 18.8139878,18.1095534 C19.5354121,18.7107403 20.6076002,18.6132686 21.2087871,17.8918444 L26.8695155,11.0989703 C26.9958834,10.9494882 27.0969181,10.7779006 27.1659947,10.5908321 C27.3036099,10.2040845 27.3036099,9.79961921 27.1722407,9.43082556 C27.0969181,9.22580314 26.9958834,9.05421552 26.8695155,8.90473341 L21.2087871,2.11185935 C20.6076002,1.39043511 19.5354121,1.29296345 18.8139878,1.89415033 C18.0925636,2.4953372 17.9950919,3.56752536 18.5962788,4.28894961 L21.9400625,8.30149003 Z" id="Combined-Shape"></path>
        </g>
    </g>
</svg>