<svg width="400" height="100" xmlns="http://www.w3.org/2000/svg"><g fill="#FFF" fill-rule="evenodd"><path d="M12 0h76c6.627 0 12 5.373 12 12v76c0 6.627-5.373 12-12 12H12c-6.627 0-12-5.373-12-12V12C0 5.373 5.373 0 12 0zm22.682 81.245c-.638.117-1.1.572-1.021 1.025.082.44.673.713 1.312.596.649-.122 1.103-.576 1.025-1.018-.082-.45-.665-.716-1.316-.603m-5.238 1.354c.007.448.54.815 1.197.8.655-.008 1.183-.385 1.168-.838 0-.45-.537-.816-1.191-.803-.657.012-1.174.383-1.174.841m-4.416-1.053c-.126.435.281.94.903 1.128.624.184 1.242-.012 1.375-.442.13-.44-.278-.94-.9-1.128-.628-.196-1.25.008-1.378.442m-3.548-2.709c-.302.333-.168.964.313 1.406.47.453 1.112.543 1.413.211.321-.33.177-.962-.301-1.406-.473-.45-1.119-.543-1.425-.21m-2.467-3.23c-.345.234-.345.821-.008 1.31.341.49.893.71 1.23.475.344-.24.344-.826.008-1.325-.345-.484-.889-.696-1.23-.46m-2.232-2.781c-.266.246-.199.76.162 1.143.347.385.86.497 1.123.255.274-.247.203-.756-.157-1.144-.36-.383-.857-.497-1.128-.254m-2.38-1.747c-.129.274.093.647.494.827.391.188.821.106.942-.168.139-.274-.09-.65-.49-.83-.397-.188-.829-.11-.946.17M32.95 100c3.357 0 3.432-1.227 3.432-2.678 0-1.313-.05-5.647-.075-10.244-15.305 3.329-18.535-6.49-18.535-6.49-2.502-6.359-6.108-8.05-6.108-8.05-4.992-3.415.376-3.345.376-3.345 5.524.388 8.434 5.67 8.434 5.67 4.906 8.41 12.87 5.978 16.01 4.573.493-3.555 1.918-5.982 3.492-7.357-12.22-1.39-25.066-6.107-25.066-27.188 0-6.006 2.15-10.914 5.67-14.766-.571-1.386-2.456-6.982.533-14.56 0 0 4.619-1.477 15.132 5.64 4.389-1.219 9.094-1.83 13.77-1.851 4.674.02 9.386.632 13.781 1.85 10.502-7.116 15.114-5.639 15.114-5.639 2.996 7.578 1.111 13.174.54 14.56 3.528 3.852 5.662 8.76 5.662 14.766 0 21.131-12.869 25.783-25.12 27.145 1.973 1.707 3.73 5.055 3.73 10.188 0 7.361-.062 13.285-.062 15.097 0 1.465.136 2.679 3.94 2.679.162.008-34.872-.008-34.65 0zM288.464 99.998h-76.929c-6.37 0-11.535-5.167-11.535-11.542v-76.92C200 5.163 205.166 0 211.535 0h76.929C294.835 0 300 5.164 300 11.535v76.92c0 6.376-5.165 11.543-11.536 11.543zM250 30.768c-10.623 0-19.232 8.607-19.232 19.229 0 10.62 8.61 19.233 19.232 19.233 10.62 0 19.232-8.613 19.232-19.233 0-10.622-8.611-19.229-19.232-19.229zm38.464-15.386a3.848 3.848 0 0 0-3.85-3.847h-11.537a3.846 3.846 0 0 0-3.845 3.847v11.54a3.847 3.847 0 0 0 3.845 3.846h11.536a3.85 3.85 0 0 0 3.85-3.846v-11.54zm0 26.92h-8.706c.633 2.463 1.008 5.035 1.008 7.695 0 16.996-13.774 30.77-30.766 30.77-16.993 0-30.768-13.774-30.768-30.77 0-2.66.376-5.232 1.01-7.694h-8.707v42.31a3.846 3.846 0 0 0 3.85 3.843h69.228a3.846 3.846 0 0 0 3.85-3.843v-42.31zM112 0h76c6.627 0 12 5.373 12 12v76c0 6.627-5.373 12-12 12h-76c-6.627 0-12-5.373-12-12V12c0-6.627 5.373-12 12-12zm73.929 84.93h-15.068V62.15c0-5.534-.019-12.653-7.625-12.653-7.723 0-8.813 6.027-8.813 12.252V84.93h-15.068V37.67h14.383v6.165h.05c1.979-3.425 6.976-7.55 14.196-7.55 15.016 0 17.945 10.042 17.945 22.894v25.75zm-63.307-53.82a8.6 8.6 0 0 1-8.61-8.601c0-4.742 3.844-8.596 8.61-8.596 4.749 0 8.603 3.854 8.603 8.596 0 4.748-3.854 8.602-8.603 8.602zm-7.239 53.82h15.068V37.67h-15.068v47.26zM308 0h84a8 8 0 0 1 8 8v84a8 8 0 0 1-8 8h-84a8 8 0 0 1-8-8V8a8 8 0 0 1 8-8zm42.127 92.68c23.774 0 43.022-19.248 43.022-43.022 0-23.729-19.248-42.977-43.022-42.977-23.73 0-42.978 19.248-42.978 42.977 0 23.774 19.249 43.023 42.978 43.023z"/><path d="M374.158 53.363C364.88 48.558 354.414 46 343.877 46c-5.89 0-11.744.761-17.358 2.31-1.836.486-2.91 3.602-2.386 5.398a3.368 3.368 0 0 0 4.195 2.38c5.02-1.38 10.289-2.07 15.549-2.07 9.57 0 18.715 2.212 27.168 6.601.488.275 1.037.381 1.56.381 1.243 0 2.422-1.903 3.017-3.044a3.42 3.42 0 0 0-1.464-4.593zM344.224 29c-6.49 0-12.97.79-19.282 2.325-2.066.517-3.347 3.017-2.826 5.079.512 2.052 2.622 3.315 4.688 2.807 5.686-1.404 11.549-2.088 17.447-2.088 11.283 0 22.072 2.5 32.146 7.465.521.272 1.139.412 1.686.412 1.457 0 2.835-1.167 3.523-2.535a3.882 3.882 0 0 0-1.757-5.176C368.707 31.772 356.735 29 344.224 29zM343.43 62c-5.238 0-10.407.814-15.372 2.387-1.544.503-2.408 3.895-1.923 5.468.476 1.61 2.1 2.496 3.651 2.003a43.933 43.933 0 0 1 13.645-2.15c7.779 0 15.496 2.04 22.252 5.935l1.411.357a2.876 2.876 0 0 0 2.55-1.573c.758-1.426.273-4.965-1.138-5.788C360.859 64.314 352.216 62 343.43 62z"/></g></svg>