<svg width="60" height="60" xmlns="http://www.w3.org/2000/svg"><g stroke="#FFF" stroke-width="3" fill="none" fill-rule="evenodd"><path d="M31.153 54.347c-.483 0-.968-.124-1.402-.37L11.867 43.89c-.884-.504-1.617-1.442-1.617-2.46V21.263c0-1.018.733-1.957 1.617-2.461L29.658 8.718a3.003 3.003 0 0 1 1.448-.371c.484 0 .99.124 1.426.37L50.13 18.803c.883.504 1.33 1.443 1.33 2.46v20.169c0 1.018-.435 1.956-1.319 2.46L32.498 53.977c-.432.246-.862.37-1.345.37z"/><path d="M15.32 22.862l14.027 7.804c.884.506 1.747 1.395 1.747 2.412v15.86" stroke-linecap="round"/><path d="M46.164 31.46l-6.576 3.659-6.75 3.755c-.885.506-1.747 1.396-1.747 2.412" stroke-linecap="round"/></g></svg>